<svg width="1024" height="1024" viewBox="0 0 1024 1024" fill="none" xmlns="http://www.w3.org/2000/svg">
<g clip-path="url(#clip0_1_1390)">
<path d="M387.856 727.12C361.915 727.12 343.483 713.467 332.56 686.16C322.32 658.853 317.2 615.163 317.2 555.088C317.2 466.341 329.829 382.032 355.088 302.16C361.232 282.363 371.131 268.027 384.784 259.152C399.12 249.595 418.917 244.816 444.176 244.816C457.829 244.816 467.387 246.523 472.848 249.936C478.309 253.349 481.04 259.835 481.04 269.392C481.04 280.315 475.92 304.891 465.68 343.12C458.853 370.427 453.392 394.32 449.296 414.8C445.2 435.28 441.787 460.539 439.056 490.576C461.584 431.867 486.843 384.08 514.832 347.216C542.821 310.352 570.128 284.069 596.752 268.368C624.059 252.667 648.976 244.816 671.504 244.816C693.349 244.816 709.733 250.619 720.656 262.224C732.261 273.147 738.064 289.531 738.064 311.376C738.064 329.125 734.309 362.576 726.8 411.728C719.973 453.371 714.512 492.965 710.416 530.512C706.32 567.376 704.272 608.677 704.272 654.416C704.272 680.357 698.811 699.131 687.888 710.736C677.648 721.659 660.581 727.12 636.688 727.12C614.16 727.12 597.776 721.317 587.536 709.712C577.296 698.107 572.176 680.699 572.176 657.488C572.176 630.181 576.955 585.125 586.512 522.32C594.704 467.707 598.8 432.891 598.8 417.872C598.8 406.949 595.045 401.488 587.536 401.488C578.661 401.488 566.032 413.093 549.648 436.304C533.947 458.832 517.563 488.869 500.496 526.416C484.112 563.963 470.8 603.557 460.56 645.2C453.051 677.285 444.176 699.131 433.936 710.736C424.379 721.659 409.019 727.12 387.856 727.12Z" fill="black"/>
</g>
<defs>
<clipPath id="clip0_1_1390">
<rect width="1024" height="1024" fill="white"/>
</clipPath>
</defs>
</svg>
